Coordinates
version=1
nRows=14
nColumns=24
inDegrees=yes

Units are S.I. units (second, meters, Newtons, ...)
Angles are in degrees.

endheader
time	pelvis_tilt	pelvis_list	pelvis_rotation	pelvis_tx	pelvis_ty	pelvis_tz	hip_flexion_r	hip_adduction_r	hip_rotation_r	knee_angle_r	ankle_angle_r	subtalar_angle_r	mtp_angle_r	hip_flexion_l	hip_adduction_l	hip_rotation_l	knee_angle_l	ankle_angle_l	subtalar_angle_l	mtp_angle_l	lumbar_extension	lumbar_bending	lumbar_rotation
      0.87466667	     -0.45198282	     -5.66057285	      8.10120923	     -0.43642709	      1.02238617	      0.35997245	     13.99142902	     10.91641531	     -2.32313675	    -18.88049320	      4.44754333	    -12.89540977	      4.51353546	     15.51898479	     -9.13493022	     -0.84763777	    -69.55476955	     -5.52586542	     -4.34414767	      0.61946027	     -0.83562862	      2.67630199	     -5.57431570
      0.87883333	     -0.47734795	     -5.57255152	      8.02551340	     -0.43162382	      1.02322092	      0.36015311	     13.53764504	     10.88521799	     -2.23021631	    -18.56281849	      4.54953441	    -12.79474965	      4.52354992	     16.16522497	     -9.04002881	     -0.90679060	    -69.51391647	     -4.74051259	     -4.45290299	      0.55016201	     -0.90862746	      2.57143773	     -5.42179499
      0.88300000	     -0.47807649	     -5.47438033	      7.93533114	     -0.42679997	      1.02409165	      0.36034232	     13.04528820	     10.84887676	     -2.12359328	    -18.22658076	      4.65610951	    -12.68424513	      4.53498426	     16.75915604	     -8.93683526	     -0.97914961	    -69.40278150	     -4.00090518	     -4.53506715	      0.44881136	     -0.98463555	      2.45429987	     -5.20382753
      0.88716667	     -0.48559468	     -5.36315541	      7.82883175	     -0.42199125	      1.02493111	      0.36053765	     12.56401732	     10.79771010	     -1.99959362	    -17.90489705	      4.76479034	    -12.57326763	      4.54696533	     17.34027147	     -8.81849914	     -1.06940780	    -69.22990565	     -3.30436619	     -4.61364940	      0.32252989	     -1.06767282	      2.32397996	     -4.96847412
      0.89133333	     -0.50507166	     -5.25478109	      7.70601067	     -0.41721638	      1.02573250	      0.36072848	     12.10311436	     10.74654189	     -1.86543998	    -17.59378494	      4.85165219	    -12.47427299	      4.55408990	     17.92047897	     -8.69525889	     -1.16439698	    -69.00149403	     -2.65791212	     -4.74768449	      0.25178213	     -1.16603373	      2.21417057	     -4.81372581
      0.89550000	     -0.48006528	     -5.15204514	      7.57850474	     -0.41238283	      1.02658877	      0.36094471	     11.57192942	     10.71124365	     -1.71266281	    -17.24036591	      4.95773117	    -12.35929447	      4.56380028	     18.42968179	     -8.59650251	     -1.27171068	    -68.70865940	     -2.03114890	     -4.74480350	      0.10665806	     -1.25953397	      2.09084771	     -4.50701198
      0.89966667	     -0.49539654	     -5.02559505	      7.42478628	     -0.40761300	      1.02735815	      0.36115277	     11.10519457	     10.64166758	     -1.54099074	    -16.93711803	      5.04958984	    -12.25781642	      4.56985913	     18.96168240	     -8.45540344	     -1.39280564	    -68.35692716	     -1.46055692	     -4.85139888	      0.02066950	     -1.36360834	      1.95956150	     -4.32716354
      0.90383333	     -0.45598847	     -4.90204376	      7.26159853	     -0.40282215	      1.02819846	      0.36138310	     10.56546257	     10.58451733	     -1.35225585	    -16.60364039	      5.14916649	    -12.14196555	      4.57550090	     19.41070850	     -8.33381815	     -1.52664876	    -67.93990105	     -0.91058583	     -4.88672130	     -0.07831340	     -1.51078673	      1.83008094	     -4.06771402
      0.90800000	     -0.44530030	     -4.78243196	      7.08417290	     -0.39802838	      1.02895611	      0.36161585	     10.06177678	     10.52462013	     -1.15931129	    -16.28049091	      5.24685365	    -12.03458876	      4.57963479	     19.87450826	     -8.21232895	     -1.66636476	    -67.46921032	     -0.40217074	     -4.92929213	     -0.17839924	     -1.61229970	      1.69940116	     -3.80369024
      0.91216667	     -0.39108816	     -4.65250468	      6.90515672	     -0.39321371	      1.02977788	      0.36185755	      9.49862234	     10.45779048	     -0.96191577	    -15.93419976	      5.35084639	    -11.92079964	      4.58246089	     20.26533301	     -8.08936415	     -1.81392147	    -66.92770219	      0.05359080	     -4.94261571	     -0.32071589	     -1.74538058	      1.55444548	     -3.46460823
      0.91633333	     -0.36488478	     -4.53417176	      6.70534621	     -0.38843158	      1.03049425	      0.36210644	      8.98050801	     10.39766669	     -0.74262788	    -15.61449731	      5.44641228	    -11.81474945	      4.58304230	     20.67513711	     -7.97645492	     -1.97056188	    -66.34572628	      0.50978710	     -4.96755301	     -0.45705897	     -1.86759695	      1.43042953	     -3.17909640
      0.92050000	     -0.31337127	     -4.40277489	      6.49710248	     -0.38365018	      1.03124160	      0.36236275	      8.43343060	     10.32327357	     -0.51869304	    -15.29460379	      5.54508515	    -11.69925202	      4.58244819	     21.03103243	     -7.85230727	     -2.13482602	    -65.69490420	      0.93118486	     -5.00016351	     -0.57201900	     -2.02231522	      1.29508824	     -2.91138739
      0.92466667	     -0.28303094	     -4.27915513	      6.27880644	     -0.37887534	      1.03191241	      0.36261047	      7.91653847	     10.24962562	     -0.29372273	    -14.98532773	      5.63496034	    -11.58151705	      4.57846163	     21.39423644	     -7.73359260	     -2.30193175	    -64.99438367	      1.33713524	     -5.02672524	     -0.70492682	     -2.14728594	      1.17362790	     -2.59225831
      0.92883333	     -0.24983198	     -4.16174632	      6.05358444	     -0.37410941	      1.03253871	      0.36287340	      7.39923106	     10.18054681	     -0.05614638	    -14.67940228	      5.74429035	    -11.46496127	      4.57402154	     21.73934183	     -7.62693047	     -2.47331165	    -64.24376158	      1.71993913	     -5.03634698	     -0.80842705	     -2.27637188	      1.04908049	     -2.32775213
